<?xml version="1.0" encoding="UTF-8" standalone="no"?>
<!-- Created with Inkscape (http://www.inkscape.org/) -->

<svg
   width="57.222347mm"
   height="37.907772mm"
   viewBox="0 0 57.222347 37.907772"
   version="1.1"
   id="svg5"
   xml:space="preserve"
   inkscape:export-filename="sweet soft.svg"
   inkscape:export-xdpi="100.50842"
   inkscape:export-ydpi="100.50842"
   sodipodi:docname="icon sweet soft 2.svg"
   inkscape:version="1.2.1 (9c6d41e410, 2022-07-14)"
   xmlns:inkscape="http://www.inkscape.org/namespaces/inkscape"
   xmlns:sodipodi="http://sodipodi.sourceforge.net/DTD/sodipodi-0.dtd"
   xmlns="http://www.w3.org/2000/svg"
   xmlns:svg="http://www.w3.org/2000/svg"><sodipodi:namedview
     id="namedview7"
     pagecolor="#ffffff"
     bordercolor="#000000"
     borderopacity="0.25"
     inkscape:showpageshadow="2"
     inkscape:pageopacity="0.0"
     inkscape:pagecheckerboard="0"
     inkscape:deskcolor="#d1d1d1"
     inkscape:document-units="mm"
     showgrid="false"
     inkscape:zoom="2.06545"
     inkscape:cx="80.611973"
     inkscape:cy="17.913772"
     inkscape:window-width="1920"
     inkscape:window-height="1017"
     inkscape:window-x="-8"
     inkscape:window-y="-8"
     inkscape:window-maximized="1"
     inkscape:current-layer="layer1" /><defs
     id="defs2" /><g
     inkscape:label="Слой 1"
     id="layer1"
     sodipodi:insensitive="true"
     inkscape:groupmode="layer"
     transform="translate(-38.712914,-121.98325)"><path
       id="path2359"
       style="font-variation-settings:normal;opacity:1;vector-effect:none;fill:#000000;fill-opacity:1;fill-rule:evenodd;stroke-width:0.27768;stroke-linecap:butt;stroke-linejoin:miter;stroke-miterlimit:4;stroke-dasharray:none;stroke-dashoffset:0;stroke-opacity:1;-inkscape-stroke:none;stop-color:#000000;stop-opacity:1"
       d="m 69.376127,121.98325 a 9.5345373,8.3058901 0 0 0 -8.072892,3.89796 8.9298306,7.8813477 0 0 0 -4.433321,-1.04025 8.9298306,7.8813477 0 0 0 -8.929688,7.88117 8.9298306,7.8813477 0 0 0 0.0083,0.20154 11.47558,10.128192 0 0 0 -9.235612,9.92653 11.47558,10.128192 0 0 0 11.314555,10.12341 11.412852,9.1039915 0 0 0 11.071159,6.91741 11.412852,9.1039915 0 0 0 8.314221,-2.8758 9.7939005,9.1039915 0 0 0 6.285405,2.1301 9.7939005,9.1039915 0 0 0 9.559106,-7.13134 8.4632549,8.3499594 0 0 0 2.214852,0.29662 8.4632549,8.3499594 0 0 0 8.463049,-8.34988 8.4632549,8.3499594 0 0 0 -7.307047,-8.27081 8.4632549,9.4820261 0 0 0 -8.278048,-7.51272 8.4632549,9.4820261 0 0 0 -1.696537,0.19844 9.5345373,8.3058901 0 0 0 -9.27747,-6.39238 z" /><g
       aria-label="SWEET
SOFT"
       id="text236"
       style="font-size:6.35px;fill:#792eb3;stroke:#2b7832;stroke-width:0.624001;paint-order:markers stroke fill"><path
         d="m 53.988455,134.73586 h 3.767212 v 0.56741 h -3.767212 q -0.886767,0 -1.268139,0.99838 0,0.0217 -0.0248,0.0682 h 5.038452 v 0.93017 q 0,1.11001 -1.156518,1.72393 -0.393775,0.15813 -0.818555,0.15813 H 52.1064 v -0.56741 h 3.609082 q 1.097607,0 1.42937,-1.0666 0.0217,-0.15503 0.0217,-0.24805 v -0.36277 H 52.1064 v -0.29765 q 0,-1.19683 1.246435,-1.79214 0.350367,-0.11162 0.63562,-0.11162 z"
         style="-inkscape-font-specification:DaMiOne;fill:#ffffff;stroke:none;stroke-width:0.624"
         id="path248" /><path
         d="m 58.307572,134.73276 h 0.567407 q 0.930176,3.81062 0.930176,3.88193 h 0.182934 l 0.341065,-3.86023 0.04341,-0.0217 h 1.522388 l 0.362768,3.88193 h 0.15813 l 0.930176,-3.88193 h 0.592212 q -1.00149,4.13308 -1.091407,4.44934 h -1.066601 q -0.06511,0 -0.15813,-1.42937 -0.0217,-0.0217 -0.251147,-2.45257 h -0.520899 v 0.0217 q -0.272851,3.1812 -0.362768,3.86023 h -1.091407 q -0.04341,0 -0.201538,-0.77205 -0.840259,-3.37343 -0.886767,-3.67729 z"
         style="-inkscape-font-specification:DaMiOne;fill:#ffffff;stroke:none;stroke-width:0.624"
         id="path250" /><path
         d="m 70.136307,134.73586 v 0.56741 h -5.636865 v -0.56741 z m -5.627563,1.63401 h 5.661669 v 0.5643 h -5.069458 v 0.43409 q 0,0.44958 0.430982,0.88366 0.36897,0.36277 1.091406,0.36277 h 3.54707 v 0.56741 h -3.593579 q -1.503784,0 -1.999878,-1.45108 -0.06821,-0.31315 -0.06821,-0.72863 z"
         style="-inkscape-font-specification:DaMiOne;fill:#ffffff;stroke:none;stroke-width:0.624"
         id="path252" /><path
         d="m 76.337479,134.73586 v 0.56741 h -5.636865 v -0.56741 z m -5.627564,1.63401 h 5.66167 v 0.5643 h -5.069458 v 0.43409 q 0,0.44958 0.430982,0.88366 0.368969,0.36277 1.091406,0.36277 h 3.54707 v 0.56741 h -3.593579 q -1.503784,0 -1.999878,-1.45108 -0.06821,-0.31315 -0.06821,-0.72863 z"
         style="-inkscape-font-specification:DaMiOne;fill:#ffffff;stroke:none;stroke-width:0.624"
         id="path254" /><path
         d="m 76.911087,134.73276 h 5.630664 v 0.5674 h -2.520776 v 3.83543 q 0,0.0465 -0.04651,0.0465 h -0.520898 v -3.88194 h -2.542481 z"
         style="-inkscape-font-specification:DaMiOne;fill:#ffffff;stroke:none;stroke-width:0.624"
         id="path256" /><path
         d="m 57.089041,142.69524 h 3.767212 v 0.56741 h -3.767212 q -0.886767,0 -1.268139,0.99839 0,0.0217 -0.0248,0.0682 h 5.038452 v 0.93017 q 0,1.11001 -1.156518,1.72393 -0.393775,0.15813 -0.818555,0.15813 h -3.65249 v -0.56741 h 3.609082 q 1.097607,0 1.42937,-1.0666 0.0217,-0.15503 0.0217,-0.24805 v -0.36276 H 55.206986 V 144.599 q 0,-1.19683 1.246435,-1.79214 0.350366,-0.11162 0.63562,-0.11162 z"
         style="-inkscape-font-specification:DaMiOne;fill:#ffffff;stroke:none;stroke-width:0.624"
         id="path258" /><path
         d="m 61.408158,142.69214 h 3.767211 q 1.137915,0 1.748731,1.22473 0.114722,0.36897 0.114722,0.56741 v 2.6572 h -3.633887 q -1.327051,0 -1.882056,-1.29294 -0.114721,-0.32557 -0.114721,-0.63562 z m 0.567407,0.56741 v 1.90686 q 0,1.0511 1.11311,1.38596 0.232544,0.0217 0.362769,0.0217 h 3.01997 v -2.02158 q 0,-0.85886 -0.976684,-1.24643 -0.170532,-0.0465 -0.319361,-0.0465 z"
         style="-inkscape-font-specification:DaMiOne;fill:#ffffff;stroke:none;stroke-width:0.624"
         id="path260" /><path
         d="m 67.609329,142.69524 h 5.636866 v 0.56741 h -5.636866 z m 0.04651,1.63401 h 5.587256 q 0.0031,0.006 0.0031,0.0465 v 0.5209 h -5.069458 v 2.24482 h -0.520899 q -0.04651,0 -0.04651,-0.0465 v -2.71921 q 0.0062,-0.0465 0.04651,-0.0465 z"
         style="-inkscape-font-specification:DaMiOne;fill:#ffffff;stroke:none;stroke-width:0.624"
         id="path262" /><path
         d="m 73.810501,142.69214 h 5.630664 v 0.56741 h -2.520776 v 3.83542 q 0,0.0465 -0.04651,0.0465 h -0.520898 v -3.88193 h -2.542481 z"
         style="-inkscape-font-specification:DaMiOne;fill:#ffffff;stroke:none;stroke-width:0.624"
         id="path264" /></g></g></svg>
