<?xml version="1.0" encoding="UTF-8" standalone="no"?>
<!-- Created with Inkscape (http://www.inkscape.org/) -->

<svg
   width="57.222347mm"
   height="37.907772mm"
   viewBox="0 0 57.222347 37.907772"
   version="1.1"
   id="svg5"
   xml:space="preserve"
   inkscape:export-filename="sweet soft.svg"
   inkscape:export-xdpi="100.50842"
   inkscape:export-ydpi="100.50842"
   xmlns:inkscape="http://www.inkscape.org/namespaces/inkscape"
   xmlns:sodipodi="http://sodipodi.sourceforge.net/DTD/sodipodi-0.dtd"
   xmlns="http://www.w3.org/2000/svg"
   xmlns:svg="http://www.w3.org/2000/svg"><sodipodi:namedview
     id="namedview7"
     pagecolor="#ffffff"
     bordercolor="#000000"
     borderopacity="0.25"
     inkscape:showpageshadow="2"
     inkscape:pageopacity="0.0"
     inkscape:pagecheckerboard="0"
     inkscape:deskcolor="#d1d1d1"
     inkscape:document-units="mm"
     showgrid="false" /><defs
     id="defs2" /><g
     inkscape:label="Слой 1"
     id="layer1"
     sodipodi:insensitive="true"
     inkscape:groupmode="layer"
     transform="translate(-38.712914,-121.98325)"><path
       id="path2359"
       style="font-variation-settings:normal;opacity:1;vector-effect:none;fill:#000000;fill-opacity:1;fill-rule:evenodd;stroke-width:0.27768;stroke-linecap:butt;stroke-linejoin:miter;stroke-miterlimit:4;stroke-dasharray:none;stroke-dashoffset:0;stroke-opacity:1;-inkscape-stroke:none;stop-color:#000000;stop-opacity:1"
       d="m 69.376127,121.98325 a 9.5345373,8.3058901 0 0 0 -8.072892,3.89796 8.9298306,7.8813477 0 0 0 -4.433321,-1.04025 8.9298306,7.8813477 0 0 0 -8.929688,7.88117 8.9298306,7.8813477 0 0 0 0.0083,0.20154 11.47558,10.128192 0 0 0 -9.235612,9.92653 11.47558,10.128192 0 0 0 11.314555,10.12341 11.412852,9.1039915 0 0 0 11.071159,6.91741 11.412852,9.1039915 0 0 0 8.314221,-2.8758 9.7939005,9.1039915 0 0 0 6.285405,2.1301 9.7939005,9.1039915 0 0 0 9.559106,-7.13134 8.4632549,8.3499594 0 0 0 2.214852,0.29662 8.4632549,8.3499594 0 0 0 8.463049,-8.34988 8.4632549,8.3499594 0 0 0 -7.307047,-8.27081 8.4632549,9.4820261 0 0 0 -8.278048,-7.51272 8.4632549,9.4820261 0 0 0 -1.696537,0.19844 9.5345373,8.3058901 0 0 0 -9.27747,-6.39238 z" /><text
       xml:space="preserve"
       style="font-size:6.35px;fill:#792eb3;stroke:#2b7832;stroke-width:0.624001;paint-order:markers stroke fill"
       x="67.609329"
       y="139.1821"
       id="text236"><tspan
         sodipodi:role="line"
         id="tspan234"
         style="font-style:normal;font-variant:normal;font-weight:normal;font-stretch:normal;font-family:DaMiOne;-inkscape-font-specification:DaMiOne;text-align:center;text-anchor:middle;fill:#ffffff;fill-opacity:1;stroke:none;stroke-width:0.624"
         x="67.609329"
         y="139.1821">SWEET</tspan><tspan
         sodipodi:role="line"
         style="font-style:normal;font-variant:normal;font-weight:normal;font-stretch:normal;font-family:DaMiOne;-inkscape-font-specification:DaMiOne;text-align:center;text-anchor:middle;fill:#ffffff;fill-opacity:1;stroke:none;stroke-width:0.624"
         x="67.609329"
         y="147.14148"
         id="tspan238">SOFT</tspan></text></g></svg>
